<svg width="24" height="15" viewBox="0 0 24 15" fill="none" xmlns="http://www.w3.org/2000/svg">
<path d="M9.31721 6.53655C9.31721 6.53655 11.5017 6.37437 11.5017 3.81204C11.5017 1.24996 9.71434 0 7.4501 0H3.28261H3.1602H0V14.3175H3.1602H3.28261H7.4501C7.4501 14.3175 11.9981 14.4614 11.9981 10.0917C11.9983 10.0917 12.1967 6.53655 9.31721 6.53655ZM3.28261 2.54498H6.91393H7.45034C7.45034 2.54498 8.46318 2.54498 8.46318 4.03446C8.46318 5.52395 7.86724 5.73987 7.19202 5.73987H3.28261V2.54498ZM7.25804 11.7733H3.28261V7.94675H7.4501C7.4501 7.94675 8.9596 7.92748 8.9596 9.91314C8.9596 11.5689 7.85567 11.7566 7.25804 11.7733Z" fill="#0766D4"/>
<path d="M20.8912 0.843384H14.9839V2.60663H20.8912V0.843384Z" fill="#0766D4"/>
<path d="M18.0641 3.64313C12.5582 3.64313 12.563 9.14369 12.563 9.14369C12.563 9.14369 12.1856 14.617 18.0643 14.617C18.0643 14.617 22.9637 14.897 22.9637 10.8093H20.444C20.444 10.8093 20.5281 12.3494 18.1484 12.3494C18.1484 12.3494 15.629 12.5179 15.629 9.85771H23.0475C23.0475 9.85771 23.8591 3.64313 18.0641 3.64313ZM20.3037 7.94675H15.6005C15.6005 7.94675 15.9083 5.73988 18.12 5.73988C20.3319 5.73964 20.3037 7.94675 20.3037 7.94675Z" fill="#0766D4"/>
</svg>
