<svg width="20" height="22" viewBox="0 0 20 22" fill="none" xmlns="http://www.w3.org/2000/svg">
<path d="M15.7498 3.09L13.2198 5.03L14.1298 8.09L11.4998 6.28L8.86982 8.09L9.77982 5.03L7.24982 3.09L10.4398 3L11.4998 0L12.5598 3L15.7498 3.09ZM19.2498 10L17.6098 11.25L18.1998 13.23L16.4998 12.06L14.7998 13.23L15.3898 11.25L13.7498 10L15.8098 9.95L16.4998 8L17.1898 9.95L19.2498 10ZM16.9698 14.95C17.7998 14.87 18.6898 16.05 18.1598 16.8C17.8398 17.25 17.4998 17.67 17.0798 18.07C13.1698 22 6.83982 22 2.93982 18.07C-0.970176 14.17 -0.970176 7.83 2.93982 3.93C3.33982 3.53 3.75982 3.17 4.20982 2.85C4.95982 2.32 6.13982 3.21 6.05982 4.04C5.78982 6.9 6.74982 9.87 8.94982 12.06C11.1398 14.26 14.0998 15.22 16.9698 14.95ZM15.3298 16.97C12.4998 16.81 9.69982 15.64 7.52982 13.5C5.35982 11.31 4.19982 8.5 4.03982 5.68C1.22982 8.82 1.33982 13.64 4.34982 16.66C7.36982 19.67 12.1898 19.78 15.3298 16.97Z" fill="white"/>
</svg>
