<svg width="24" height="23" viewBox="0 0 24 23" fill="none" xmlns="http://www.w3.org/2000/svg">
<path d="M23.0863 11.5432C23.0863 11.978 23.0622 12.4072 23.0151 12.8299C23.0099 12.877 23.0047 12.9246 22.9991 12.9717C22.9694 13.211 22.9322 13.4485 22.8884 13.6831C22.8799 13.7297 22.8709 13.7759 22.8615 13.8216C22.0455 17.8994 19.0815 21.2008 15.1987 22.495C14.6136 22.6081 14.4058 22.2486 14.4058 21.9409C14.4058 21.5607 14.419 20.3178 14.419 18.7734C14.419 17.6963 14.0501 16.9938 13.6364 16.6358C15.6355 16.4134 17.7137 15.7735 18.5382 13.4131C18.5547 13.3669 18.5703 13.3198 18.5854 13.2722C18.6315 13.1285 18.6725 12.9787 18.7093 12.8223C18.7201 12.7757 18.7309 12.7285 18.7408 12.6805C18.8487 12.1693 18.9072 11.5921 18.9072 10.94C18.9072 9.68016 18.4591 8.65024 17.7189 7.84177C17.8391 7.55107 18.2344 6.37696 17.6059 4.78685C17.6059 4.78685 16.6381 4.47685 14.4346 5.97038C13.5121 5.71454 12.524 5.58639 11.5431 5.5817C10.5622 5.58639 9.57467 5.71458 8.65356 5.97038C6.4481 4.47685 5.47848 4.78685 5.47848 4.78685C4.85186 6.37696 5.24717 7.55107 5.36684 7.84177C4.62853 8.65024 4.17717 9.6802 4.17717 10.94C4.17717 11.5916 4.23561 12.1688 4.34396 12.68C4.35384 12.728 4.36421 12.7752 4.37507 12.8218C4.41182 12.9782 4.45331 13.1285 4.49948 13.2722C4.51454 13.3198 4.53059 13.3669 4.5466 13.4131C5.37062 15.7693 7.4432 16.4181 9.43665 16.6447C9.10636 16.933 8.80719 17.4423 8.70353 18.1886C8.04484 18.4836 6.37416 18.9934 5.3447 17.2289C5.3447 17.2289 4.73408 16.1207 3.57508 16.0392C3.57508 16.0392 2.44854 16.0246 3.4964 16.7408C3.4964 16.7408 4.25261 17.096 4.77791 18.4299C4.77791 18.4299 5.45544 20.4902 8.66678 19.792C8.67196 20.7564 8.68233 21.6657 8.68233 21.9409C8.68233 22.2457 8.47077 22.6033 7.89361 22.4964C4.00853 21.2031 1.04123 17.9013 0.22473 13.8216V13.8212C0.215307 13.7755 0.206334 13.7293 0.198353 13.6831C0.154074 13.4485 0.116829 13.211 0.0876106 12.9717C0.0814783 12.9246 0.0762929 12.8774 0.0711075 12.8299C0.0240332 12.4072 0 11.978 0 11.5432C0 5.16804 5.16898 0 11.5431 0C17.9178 0 23.0863 5.16804 23.0863 11.5432Z" fill="#4A4949"/>
<path d="M4.26891 16.3993C4.18553 16.3598 4.09504 16.3763 4.0701 16.4351C4.04323 16.4926 4.0899 16.5708 4.17377 16.6085C4.25624 16.6481 4.34619 16.6311 4.37167 16.5736C4.40084 16.5161 4.35277 16.437 4.26891 16.3993Z" fill="#4A4949"/>
<path d="M4.80679 16.855C4.73095 16.7749 4.62679 16.7509 4.5703 16.8017C4.51426 16.8535 4.52837 16.9614 4.60375 17.0415C4.6768 17.1221 4.78465 17.1461 4.83979 17.0952C4.89728 17.0433 4.88217 16.9364 4.80679 16.855Z" fill="#4A4949"/>
<path d="M5.29628 17.482C5.22373 17.3802 5.10969 17.3359 5.03854 17.3849C4.96599 17.4344 4.96599 17.5574 5.03665 17.6601C5.10825 17.7628 5.22368 17.809 5.29483 17.7595C5.36693 17.7095 5.36693 17.5861 5.29628 17.482Z" fill="#4A4949"/>
<path d="M5.85483 18.1072C5.7554 18.0125 5.61972 17.9932 5.55564 18.0629C5.49251 18.1326 5.52029 18.2651 5.62112 18.3579C5.72005 18.453 5.85483 18.4719 5.91796 18.4021C5.98537 18.3329 5.95476 18.2 5.85483 18.1072Z" fill="#4A4949"/>
<path d="M6.5895 18.5383C6.45757 18.4973 6.32707 18.5402 6.3002 18.6311C6.27382 18.7225 6.35909 18.8285 6.48958 18.8681C6.62057 18.9062 6.75012 18.8652 6.77839 18.7748C6.80531 18.6829 6.72004 18.5779 6.5895 18.5383Z" fill="#4A4949"/>
<path d="M7.47346 18.6759C7.3354 18.6782 7.22705 18.7559 7.22705 18.8521C7.22845 18.9459 7.34013 19.0231 7.47815 19.0199C7.61526 19.0185 7.72645 18.9393 7.72312 18.8441C7.72316 18.7499 7.61053 18.673 7.47346 18.6759Z" fill="#4A4949"/>
<path d="M8.60222 18.6948C8.58477 18.6001 8.46231 18.5445 8.32614 18.568C8.19187 18.5925 8.09483 18.6881 8.11179 18.7833C8.12874 18.8753 8.25265 18.9327 8.38692 18.9082C8.52309 18.8828 8.61828 18.7876 8.60222 18.6948Z" fill="#4A4949"/>
</svg>
