<svg width="20" height="20" viewBox="0 0 20 20" fill="none" xmlns="http://www.w3.org/2000/svg">
<path d="M20 9.99999C20 10.3767 19.9792 10.7485 19.9384 11.1147C19.9339 11.1555 19.9294 11.1967 19.9245 11.2375C19.8988 11.4449 19.8665 11.6506 19.8286 11.8539C19.8212 11.8942 19.8134 11.9342 19.8053 11.9739C19.0983 15.5065 16.5306 18.3665 13.1669 19.4877C12.66 19.5857 12.48 19.2742 12.48 19.0077C12.48 18.6783 12.4914 17.6016 12.4914 16.2636C12.4914 15.3306 12.1718 14.722 11.8134 14.4118C13.5453 14.2191 15.3457 13.6648 16.06 11.62C16.0743 11.58 16.0877 11.5391 16.1008 11.4979C16.1408 11.3734 16.1763 11.2436 16.2081 11.1081C16.2175 11.0677 16.2269 11.0269 16.2355 10.9853C16.3289 10.5424 16.3796 10.0424 16.3796 9.47749C16.3796 8.38605 15.9914 7.49382 15.3502 6.79343C15.4543 6.5416 15.7967 5.52445 15.2522 4.14691C15.2522 4.14691 14.4139 3.87836 12.5049 5.17222C11.7057 4.95058 10.8498 4.83957 10 4.8355C9.1502 4.83957 8.29469 4.95062 7.49672 5.17222C5.58609 3.87836 4.74609 4.14691 4.74609 4.14691C4.20324 5.52445 4.5457 6.5416 4.64937 6.79343C4.00977 7.49382 3.61875 8.38609 3.61875 9.47749C3.61875 10.042 3.66937 10.542 3.76324 10.9848C3.7718 11.0265 3.78078 11.0673 3.7902 11.1077C3.82203 11.2432 3.85797 11.3734 3.89797 11.4979C3.91102 11.5391 3.92492 11.5799 3.93879 11.6199C4.65266 13.6611 6.44816 14.2232 8.17512 14.4195C7.88898 14.6693 7.6298 15.1105 7.54 15.7571C6.96938 16.0126 5.52203 16.4542 4.6302 14.9256C4.6302 14.9256 4.10121 13.9656 3.09715 13.895C3.09715 13.895 2.12121 13.8823 3.02898 14.5028C3.02898 14.5028 3.6841 14.8105 4.13918 15.966C4.13918 15.966 4.72613 17.7509 7.50816 17.146C7.51266 17.9815 7.52164 18.7693 7.52164 19.0077C7.52164 19.2717 7.33836 19.5815 6.83836 19.4889C3.47266 18.3685 0.902031 15.5081 0.194688 11.9739V11.9735C0.186523 11.9339 0.17875 11.8939 0.171836 11.8539C0.133477 11.6506 0.101211 11.4449 0.0758984 11.2375C0.0705859 11.1967 0.0660938 11.1559 0.0616016 11.1147C0.0208203 10.7485 0 10.3767 0 9.99999C0 4.47714 4.47797 0 10 0C15.5225 0 20 4.47714 20 9.99999Z" fill="white"/>
<path d="M3.69834 14.2069C3.62612 14.1727 3.54772 14.1869 3.52612 14.2379C3.50284 14.2877 3.54327 14.3554 3.61592 14.3881C3.68737 14.4224 3.76529 14.4077 3.78736 14.3579C3.81264 14.3081 3.771 14.2396 3.69834 14.2069Z" fill="white"/>
<path d="M4.16416 14.6017C4.09846 14.5324 4.00823 14.5115 3.95929 14.5556C3.91073 14.6004 3.92296 14.6939 3.98827 14.7633C4.05155 14.833 4.14498 14.8538 4.19275 14.8098C4.24255 14.7649 4.22947 14.6722 4.16416 14.6017Z" fill="white"/>
<path d="M4.58801 15.1448C4.52516 15.0567 4.42637 15.0183 4.36473 15.0608C4.30188 15.1036 4.30188 15.2101 4.36309 15.2991C4.42512 15.3881 4.52512 15.4281 4.58676 15.3852C4.64922 15.3419 4.64922 15.235 4.58801 15.1448Z" fill="white"/>
<path d="M5.07205 15.6864C4.98591 15.6044 4.86837 15.5876 4.81286 15.648C4.75817 15.7084 4.78223 15.8231 4.86958 15.9035C4.95528 15.986 5.07205 16.0023 5.12673 15.9419C5.18513 15.8819 5.15861 15.7668 5.07205 15.6864Z" fill="white"/>
<path d="M5.70839 16.0599C5.59409 16.0244 5.48104 16.0615 5.45776 16.1403C5.43491 16.2195 5.50878 16.3113 5.62182 16.3456C5.7353 16.3786 5.84753 16.3431 5.87202 16.2648C5.89534 16.1852 5.82147 16.0942 5.70839 16.0599Z" fill="white"/>
<path d="M6.47421 16.1793C6.35461 16.1813 6.26074 16.2487 6.26074 16.332C6.26195 16.4132 6.35871 16.4802 6.47827 16.4773C6.59705 16.4761 6.69338 16.4075 6.69049 16.3251C6.69053 16.2434 6.59295 16.1768 6.47421 16.1793Z" fill="white"/>
<path d="M7.45242 16.1956C7.4373 16.1135 7.33121 16.0653 7.21325 16.0857C7.09692 16.1069 7.01286 16.1898 7.02755 16.2723C7.04223 16.3519 7.14957 16.4017 7.2659 16.3805C7.38387 16.3584 7.46633 16.276 7.45242 16.1956Z" fill="white"/>
</svg>
