<svg width="25" height="25" viewBox="0 0 25 25" fill="none" xmlns="http://www.w3.org/2000/svg">
<path d="M16.7468 23.2843C16.766 23.2786 16.7843 23.2709 16.8036 23.2641C28.5651 18.5966 25.3115 1 12.5544 1C6.15232 1 1 6.21282 1 12.5413C1 20.55 9.12085 26.2649 16.7468 23.2843ZM6.08492 20.2923C6.90529 18.915 9.55992 15.0294 14.0912 13.6887C15.0387 16.1018 15.703 18.9169 15.7685 22.109C12.3349 23.2622 8.71356 22.4861 6.08492 20.2923ZM17.1887 21.507C17.0626 18.4399 16.4358 15.72 15.5422 13.3636C17.5469 13.051 19.8675 13.2598 22.499 14.3129C21.9395 17.4492 19.932 20.0855 17.1887 21.507ZM22.6501 12.8212C19.7519 11.7334 17.1974 11.5978 14.9867 12.0191C14.6448 11.2496 14.2857 10.51 13.9054 9.8291C17.2975 8.47588 19.3022 6.82644 20.1996 5.95314C21.7836 7.78436 22.7243 10.1551 22.6501 12.8212ZM19.1742 4.92597C18.3577 5.70212 16.4348 7.26981 13.1466 8.55186C11.5348 6.00508 9.81123 4.20848 8.71933 3.20247C12.2126 1.76557 16.2413 2.37919 19.1742 4.92597ZM7.33858 3.90745C8.1628 4.63166 9.97203 6.37055 11.7177 9.05968C9.32017 9.83102 6.31408 10.3975 2.65806 10.4773C3.23964 7.69396 4.97666 5.33568 7.33858 3.90745ZM2.47512 11.9258C6.56732 11.8594 9.87959 11.2141 12.4976 10.3408C12.8597 10.9746 13.2034 11.6651 13.5337 12.3826C8.9745 13.833 6.12536 17.5772 5.03443 19.268C3.2743 17.3059 2.30373 14.7457 2.47512 11.9258Z" fill="#BA1454" stroke="#B8104E" stroke-width="0.6"/>
</svg>
